<?xml version="1.0" encoding="UTF-8" standalone="no"?>
<svg
   xmlns:dc="http://purl.org/dc/elements/1.1/"
   xmlns:cc="http://creativecommons.org/ns#"
   xmlns:rdf="http://www.w3.org/1999/02/22-rdf-syntax-ns#"
   xmlns:svg="http://www.w3.org/2000/svg"
   xmlns="http://www.w3.org/2000/svg"
   xmlns:xlink="http://www.w3.org/1999/xlink"
   xmlns:sodipodi="http://sodipodi.sourceforge.net/DTD/sodipodi-0.dtd"
   xmlns:inkscape="http://www.inkscape.org/namespaces/inkscape"
   sodipodi:docname="TuxWindows.svg"
   inkscape:version="1.0 (4035a4fb49, 2020-05-01)"
   id="svg8"
   version="1.1"
   viewBox="0 0 541.86665 285.75001"
   height="1080"
   width="2048">
  <defs
     id="defs2">
    <linearGradient
       id="linearGradient1677"
       inkscape:collect="always">
      <stop
         id="stop1673"
         offset="0"
         style="stop-color:#ffaa00;stop-opacity:1;" />
      <stop
         id="stop1675"
         offset="1"
         style="stop-color:#ffaa00;stop-opacity:0;" />
    </linearGradient>
    <linearGradient
       id="linearGradient1305"
       inkscape:collect="always">
      <stop
         id="stop1301"
         offset="0"
         style="stop-color:#b0e0e6;stop-opacity:1;" />
      <stop
         id="stop1303"
         offset="1"
         style="stop-color:#b0e042;stop-opacity:0" />
    </linearGradient>
    <linearGradient
       id="linearGradient1048"
       inkscape:collect="always">
      <stop
         id="stop1044"
         offset="0"
         style="stop-color:#ffc400;stop-opacity:1;" />
      <stop
         id="stop1046"
         offset="1"
         style="stop-color:#ffc400;stop-opacity:0;" />
    </linearGradient>
    <radialGradient
       gradientUnits="userSpaceOnUse"
       gradientTransform="matrix(2.0448761,0.00963172,-0.00921197,1.9557604,-191.07589,-11.733172)"
       r="21.525352"
       fy="71.179871"
       fx="55.240566"
       cy="71.179871"
       cx="55.240566"
       id="radialGradient1013"
       xlink:href="#linearGradient1048"
       inkscape:collect="always" />
    <linearGradient
       gradientUnits="userSpaceOnUse"
       y2="88.559914"
       x2="107.01753"
       y1="159.11908"
       x1="107.81934"
       id="linearGradient1307"
       xlink:href="#linearGradient1305"
       inkscape:collect="always" />
    <radialGradient
       gradientUnits="userSpaceOnUse"
       gradientTransform="matrix(3.4128785,0,0,0.60323241,-87.69956,95.441962)"
       r="118.04476"
       fy="78.744141"
       fx="105.32654"
       cy="78.744141"
       cx="105.32654"
       id="radialGradient3310"
       xlink:href="#linearGradient3308"
       inkscape:collect="always" />
    <linearGradient
       id="linearGradient3308"
       inkscape:collect="always">
      <stop
         id="stop3304"
         offset="0"
         style="stop-color:#f0ffff;stop-opacity:1;" />
      <stop
         id="stop3306"
         offset="1"
         style="stop-color:#f0ffff;stop-opacity:0;" />
    </linearGradient>
    <linearGradient
       gradientTransform="matrix(0.7830309,0,0,0.81279901,225.73234,37.246657)"
       gradientUnits="userSpaceOnUse"
       y2="206.30463"
       x2="57.23452"
       y1="180.41325"
       x1="11.915097"
       id="linearGradient1023"
       xlink:href="#linearGradient1048"
       inkscape:collect="always" />
    <linearGradient
       gradientTransform="matrix(0.7830309,0,0,0.81279901,225.73234,37.246657)"
       gradientUnits="userSpaceOnUse"
       y2="219.88402"
       x2="147.35617"
       y1="169.09126"
       x1="98.054703"
       id="linearGradient1050"
       xlink:href="#linearGradient1048"
       inkscape:collect="always" />
    <radialGradient
       gradientUnits="userSpaceOnUse"
       gradientTransform="matrix(-1.3487228,1.0806452,-1.2477398,-1.5572689,748.22538,-37.371433)"
       r="16.855018"
       fy="99.243469"
       fx="265.54169"
       cy="99.243469"
       cx="265.54169"
       id="radialGradient1679"
       xlink:href="#linearGradient1677"
       inkscape:collect="always" />
    <filter
       height="1.2608882"
       y="-0.13044408"
       width="1.1370873"
       x="-0.068543648"
       id="filter1747"
       style="color-interpolation-filters:sRGB"
       inkscape:collect="always">
      <feGaussianBlur
         id="feGaussianBlur1749"
         stdDeviation="15.506322"
         inkscape:collect="always" />
    </filter>
  </defs>
  <sodipodi:namedview
     inkscape:window-maximized="1"
     inkscape:window-y="-9"
     inkscape:window-x="-9"
     inkscape:window-height="1001"
     inkscape:window-width="1920"
     units="px"
     showgrid="false"
     inkscape:document-rotation="0"
     inkscape:current-layer="layer1"
     inkscape:document-units="mm"
     inkscape:cy="550.52953"
     inkscape:cx="914.58936"
     inkscape:zoom="0.35"
     inkscape:pageshadow="2"
     inkscape:pageopacity="0.0"
     borderopacity="1.0"
     bordercolor="#666666"
     pagecolor="#ffffff"
     id="base" />
  <metadata
     id="metadata5">
    <rdf:RDF>
      <cc:Work
         rdf:about="">
        <dc:format>image/svg+xml</dc:format>
        <dc:type
           rdf:resource="http://purl.org/dc/dcmitype/StillImage" />
        <dc:title></dc:title>
      </cc:Work>
    </rdf:RDF>
  </metadata>
  <g
     id="layer1"
     inkscape:groupmode="layer"
     inkscape:label="Livello 1">
    <rect
       style="opacity:1;fill:#134242;fill-opacity:1;fill-rule:nonzero;stroke-width:1.01527;stroke-miterlimit:4;stroke-dasharray:none"
       id="rect1328-0"
       width="542.94122"
       height="285.29599"
       x="0.29648551"
       y="0.2949864" />
    <rect
       y="0.2949864"
       x="0.29648551"
       height="285.29599"
       width="542.94122"
       id="rect1328"
       style="opacity:1;fill:url(#radialGradient3310);fill-opacity:1;fill-rule:nonzero;stroke-width:1.01527;stroke-miterlimit:4;stroke-dasharray:none;filter:url(#filter1747)" />
    <g
       transform="matrix(1.4030472,0,0,1.4030472,465.23369,10.002963)"
       id="g1229">
      <path
         id="path1237"
         d="m -119.08575,159.8204 -2.06915,-0.30215 -3.39891,-0.90276 -3.39891,-0.90276 -3.91685,-1.88126 -3.91686,-1.88126 -2.88491,-1.85059 -2.88491,-1.8506 0.19618,-0.6181 0.19618,-0.61811 6.87174,-23.77086 6.87173,-23.77086 0.26302,-0.58797 0.26302,-0.58798 3.88055,2.32172 3.88056,2.32171 3.1374,1.36736 3.1374,1.36735 3.38899,0.90629 3.38898,0.90628 5.53713,0.18373 5.537126,0.18372 3.458708,-0.43042 3.458707,-0.43041 4.588383,-1.17081 4.588383,-1.17081 3.997621,-1.471 3.997622,-1.47101 0.167248,0.16725 0.167245,0.16724 -7.08381,24.46666 -7.083809,24.46666 -0.688178,0.5767 -0.688177,0.57671 -4.156262,1.47995 -4.156266,1.47995 -4.056944,1.01393 -4.056947,1.01393 -3.74944,0.54538 -3.74944,0.54539 -3.4825,-0.043 -3.48251,-0.043 z m -34.2625,-15.92525 -2.81776,-1.78684 -3.00434,-1.51518 -3.00434,-1.51518 -3.17374,-1.03323 -3.17373,-1.03322 -2.64583,-0.48022 -2.64584,-0.48022 -5.29166,0.025 -5.29167,0.0249 -3.52778,0.62555 -3.52778,0.62556 -4.13152,1.18565 -4.13152,1.18566 -3.27558,1.23035 -3.27558,1.23036 -0.26552,-0.26552 -0.26551,-0.26552 7.09263,-24.85349 7.09262,-24.853493 0.57999,-0.582782 0.57999,-0.582782 3.91578,-1.426824 3.91578,-1.426824 4.02172,-1.054692 4.02172,-1.054693 3.52778,-0.60071 3.52778,-0.600713 4.93889,0.01051 4.93889,0.01051 2.82222,0.584648 2.82222,0.584652 2.82222,0.90811 2.82223,0.908113 3.44712,1.708556 3.44713,1.708559 2.473,1.59977 2.47299,1.599773 0.19795,0.515842 0.19795,0.515846 -7.10109,24.443124 -7.1011,24.44312 -0.33233,0.79374 -0.33233,0.79375 -0.27215,-0.0314 -0.27214,-0.0314 -2.81776,-1.78685 z m 53.617755,-43.18377 -1.763885,-0.14048 -2.82223,-0.56118 -2.82222,-0.561182 -2.99861,-1.057762 -2.99861,-1.057765 -2.46945,-1.233784 -2.46944,-1.233784 -2.93666,-1.76379 -2.93666,-1.763787 -0.17052,-0.444401 -0.17054,-0.444398 7.10668,-24.65149 7.10667,-24.651487 0.30966,-0.322753 0.30965,-0.322753 1.96067,1.301808 1.96066,1.301809 3.2552,1.737126 3.25519,1.737127 3.763889,1.257602 3.763888,1.257603 3.644445,0.559103 3.644445,0.559103 4.7625,-0.186019 4.762499,-0.186017 3.851561,-0.755053 3.851561,-0.755052 3.90955,-1.185145 3.909551,-1.185145 2.798758,-1.077819 2.798763,-1.07782 0.149641,0.149645 0.149645,0.149645 -6.234906,21.628448 -6.234906,21.628446 -1.034486,3.388745 -1.034485,3.388741 -4.174649,1.622721 -4.174645,1.622725 -3.113144,0.902151 -3.113141,0.902156 -3.384278,0.674736 -3.384278,0.674736 -4.409722,0.15758 -4.409723,0.15758 z m -37.544525,-18.834654 -4.03063,-2.43549 -3.02492,-1.277034 -3.02492,-1.277034 -3.35139,-0.895227 -3.35139,-0.89523 -5.64445,-0.166666 -5.64444,-0.166667 -4.05695,0.730197 -4.05694,0.730198 -3.7924,1.088171 -3.79239,1.088168 -3.70891,1.393126 -3.7089,1.39313 h -0.17162 -0.17161 l 7e-4,-0.440972 7.1e-4,-0.440972 2.25642,-7.761111 2.25641,-7.761112 4.66564,-16.227777 4.66565,-16.227778 0.2588,-0.483724 0.2588,-0.483725 3.04897,-1.178752 3.04896,-1.178752 3.61586,-1.069503 3.61586,-1.069503 3.35139,-0.736675 3.35139,-0.736676 5.92654,-0.192893 5.92653,-0.192894 2.71652,0.436824 2.71652,0.436824 2.96347,0.857304 2.96347,0.857304 2.68098,1.231611 2.68097,1.231612 3.61597,2.173009 3.61598,2.173009 v 0.693639 0.693638 l -1.38562,4.79555 -1.38535,4.795551 -4.65409,16.051389 -4.65409,16.051388 -0.95611,3.331475 -0.9561,3.331475 -0.32433,0.08353 -0.32432,0.08354 z"
         style="fill:#fdc201;stroke-width:0.352778" />
      <path
         id="path1235"
         d="m -153.34825,143.89515 -2.81776,-1.78684 -3.00434,-1.51518 -3.00434,-1.51518 -3.17374,-1.03323 -3.17373,-1.03322 -2.64583,-0.48022 -2.64584,-0.48022 -5.29166,0.025 -5.29167,0.0249 -3.52778,0.62555 -3.52778,0.62556 -4.13152,1.18565 -4.13152,1.18566 -3.27558,1.23035 -3.27558,1.23036 -0.26552,-0.26552 -0.26551,-0.26552 7.09263,-24.85349 7.09262,-24.853493 0.57999,-0.582782 0.57999,-0.582782 3.91578,-1.426824 3.91578,-1.426824 4.02172,-1.054692 4.02172,-1.054693 3.52778,-0.60071 3.52778,-0.600713 4.93889,0.01051 4.93889,0.01051 2.82222,0.584648 2.82222,0.584652 2.82222,0.90811 2.82223,0.908113 3.44712,1.708556 3.44713,1.708559 2.473,1.59977 2.47299,1.599773 0.19795,0.515842 0.19795,0.515846 -7.10109,24.443124 -7.1011,24.44312 -0.33233,0.79374 -0.33233,0.79375 -0.27215,-0.0314 -0.27214,-0.0314 -2.81776,-1.78685 z m 53.617755,-43.18377 -1.763885,-0.14048 -2.82223,-0.56118 -2.82222,-0.561182 -2.99861,-1.057762 -2.99861,-1.057765 -2.46945,-1.233784 -2.46944,-1.233784 -2.93666,-1.76379 -2.93666,-1.763787 -0.17052,-0.444401 -0.17054,-0.444398 7.10668,-24.65149 7.10667,-24.651487 0.30966,-0.322753 0.30965,-0.322753 1.96067,1.301808 1.96066,1.301809 3.2552,1.737126 3.25519,1.737127 3.763889,1.257602 3.763888,1.257603 3.644445,0.559103 3.644445,0.559103 4.7625,-0.186019 4.762499,-0.186017 3.851561,-0.755053 3.851561,-0.755052 3.90955,-1.185145 3.909551,-1.185145 2.798758,-1.077819 2.798763,-1.07782 0.149641,0.149645 0.149645,0.149645 -6.234906,21.628448 -6.234906,21.628446 -1.034486,3.388745 -1.034485,3.388741 -4.174649,1.622721 -4.174645,1.622725 -3.113144,0.902151 -3.113141,0.902156 -3.384278,0.674736 -3.384278,0.674736 -4.409722,0.15758 -4.409723,0.15758 z m -37.544525,-18.834654 -4.03063,-2.43549 -3.02492,-1.277034 -3.02492,-1.277034 -3.35139,-0.895227 -3.35139,-0.89523 -5.64445,-0.166666 -5.64444,-0.166667 -4.05695,0.730197 -4.05694,0.730198 -3.7924,1.088171 -3.79239,1.088168 -3.70891,1.393126 -3.7089,1.39313 h -0.17162 -0.17161 l 7e-4,-0.440972 7.1e-4,-0.440972 2.25642,-7.761111 2.25641,-7.761112 4.66564,-16.227777 4.66565,-16.227778 0.2588,-0.483724 0.2588,-0.483725 3.04897,-1.178752 3.04896,-1.178752 3.61586,-1.069503 3.61586,-1.069503 3.35139,-0.736675 3.35139,-0.736676 5.92654,-0.192893 5.92653,-0.192894 2.71652,0.436824 2.71652,0.436824 2.96347,0.857304 2.96347,0.857304 2.68098,1.231611 2.68097,1.231612 3.61597,2.173009 3.61598,2.173009 v 0.693639 0.693638 l -1.38562,4.79555 -1.38535,4.795551 -4.65409,16.051389 -4.65409,16.051388 -0.95611,3.331475 -0.9561,3.331475 -0.32433,0.08353 -0.32432,0.08354 z"
         style="fill:#03b3f0;stroke-width:0.352778" />
      <path
         id="path1233"
         d="m -99.730495,100.71138 -1.763885,-0.14048 -2.82223,-0.56118 -2.82222,-0.561182 -2.99861,-1.057762 -2.99861,-1.057765 -2.46945,-1.233784 -2.46944,-1.233784 -2.93666,-1.76379 -2.93666,-1.763787 -0.17052,-0.444401 -0.17054,-0.444398 7.10668,-24.65149 7.10667,-24.651487 0.30966,-0.322753 0.30965,-0.322753 1.96067,1.301808 1.96066,1.301809 3.2552,1.737126 3.25519,1.737127 3.763889,1.257602 3.763888,1.257603 3.644445,0.559103 3.644445,0.559103 4.7625,-0.186019 4.762499,-0.186017 3.851561,-0.755053 3.851561,-0.755052 3.90955,-1.185145 3.909551,-1.185145 2.798758,-1.077819 2.798763,-1.07782 0.149641,0.149645 0.149645,0.149645 -6.234906,21.628448 -6.234906,21.628446 -1.034486,3.388745 -1.034485,3.388741 -4.174649,1.622721 -4.174645,1.622725 -3.113144,0.902151 -3.113141,0.902156 -3.384278,0.674736 -3.384278,0.674736 -4.409722,0.15758 -4.409723,0.15758 z m -37.544525,-18.834654 -4.03063,-2.43549 -3.02492,-1.277034 -3.02492,-1.277034 -3.35139,-0.895227 -3.35139,-0.89523 -5.64445,-0.166666 -5.64444,-0.166667 -4.05695,0.730197 -4.05694,0.730198 -3.7924,1.088171 -3.79239,1.088168 -3.70891,1.393126 -3.7089,1.39313 h -0.17162 -0.17161 l 7e-4,-0.440972 7.1e-4,-0.440972 2.25642,-7.761111 2.25641,-7.761112 4.66564,-16.227777 4.66565,-16.227778 0.2588,-0.483724 0.2588,-0.483725 3.04897,-1.178752 3.04896,-1.178752 3.61586,-1.069503 3.61586,-1.069503 3.35139,-0.736675 3.35139,-0.736676 5.92654,-0.192893 5.92653,-0.192894 2.71652,0.436824 2.71652,0.436824 2.96347,0.857304 2.96347,0.857304 2.68098,1.231611 2.68097,1.231612 3.61597,2.173009 3.61598,2.173009 v 0.693639 0.693638 l -1.38562,4.79555 -1.38535,4.795551 -4.65409,16.051389 -4.65409,16.051388 -0.95611,3.331475 -0.9561,3.331475 -0.32433,0.08353 -0.32432,0.08354 z"
         style="fill:#f6672b;stroke-width:0.352778" />
      <path
         id="path1231"
         d="m -99.730495,100.71138 -1.763885,-0.14048 -2.82223,-0.56118 -2.82222,-0.561182 -2.99861,-1.057762 -2.99861,-1.057765 -2.46945,-1.233784 -2.46944,-1.233784 -2.93666,-1.76379 -2.93666,-1.763787 -0.17052,-0.444401 -0.17054,-0.444398 7.10668,-24.65149 7.10667,-24.651487 0.30966,-0.322753 0.30965,-0.322753 1.96067,1.301808 1.96066,1.301809 3.2552,1.737126 3.25519,1.737127 3.763889,1.257602 3.763888,1.257603 3.644445,0.559103 3.644445,0.559103 4.7625,-0.186019 4.762499,-0.186017 3.851561,-0.755053 3.851561,-0.755052 3.90955,-1.185145 3.909551,-1.185145 2.798758,-1.077819 2.798763,-1.07782 0.149641,0.149645 0.149645,0.149645 -6.234906,21.628448 -6.234906,21.628446 -1.034486,3.388745 -1.034485,3.388741 -4.174649,1.622721 -4.174645,1.622725 -3.113144,0.902151 -3.113141,0.902156 -3.384278,0.674736 -3.384278,0.674736 -4.409722,0.15758 -4.409723,0.15758 z"
         style="fill:#90c200;stroke-width:0.352778" />
    </g>
    <g
       transform="translate(13.229169,4.7625002)"
       id="g1689">
      <path
         id="rect1199"
         style="fill:#ffffff;fill-opacity:1;stroke-width:0.228684"
         d="m 276.85366,75.417322 c -3.37797,0.06592 -5.96439,3.569131 -6.66487,6.92916 -0.19438,0.933508 -0.55911,3.211134 0.002,4.041066 0.48429,0.716044 2.36036,1.125808 3.14448,1.464209 -0.0385,-1.993625 0.35758,-7.574604 3.64623,-6.594823 3.90287,1.163001 2.46515,6.642307 1.32601,9.17546 0.92981,0.228648 2.72654,1.478888 3.62884,1.142885 1.164,-0.433368 1.71826,-2.967993 1.96737,-4.067523 0.99031,-4.371599 -0.72283,-10.148925 -5.0989,-11.750635 -0.67289,-0.246294 -1.32563,-0.351991 -1.95118,-0.339799 z m -16.95939,1.368022 c -0.54649,-0.0016 -1.14718,0.133315 -1.80672,0.436408 -5.3145,2.442144 -3.62608,11.059764 -0.99462,14.758853 0.56303,-0.22486 1.74984,-0.759926 1.61576,-1.554933 -0.35718,-2.116301 -1.8191,-3.412626 -1.15365,-5.842554 0.5733,-2.094274 2.24984,-2.838538 3.54063,-0.860209 0.84574,1.296333 0.83642,2.803766 0.80362,4.301056 l 2.98342,-1.376418 c 0,-3.104836 -1.16292,-9.849044 -4.98844,-9.862203 z m 7.46607,10.524154 c -0.32112,0.0057 -0.64923,0.03007 -0.98571,0.07559 -3.68344,0.498237 -5.93331,3.514039 -8.78439,5.627926 -1.26262,0.936084 -2.9882,1.980295 -3.07123,3.784847 -0.13045,2.83801 2.60154,4.521899 4.56276,5.863139 3.33935,2.28351 5.35186,5.17879 9.77898,4.58164 2.8133,-0.37953 4.88625,-2.13848 7.29247,-3.50932 3.07037,-1.74933 8.38726,-3.03319 7.93827,-7.795669 -0.20055,-2.127298 -2.28051,-3.09995 -3.96064,-3.774354 -1.48554,-0.596302 -3.0479,-1.035172 -4.47494,-1.777542 -2.75427,-1.432998 -5.19142,-3.131617 -8.29557,-3.076274 z m 13.93103,8.456377 v 1.204211 c -2.67192,0.49445 -5.24719,2.848568 -7.62427,4.148174 -4.32088,2.36231 -9.25942,2.66723 -13.42483,-0.19195 -1.54289,-1.059091 -4.52176,-2.838967 -4.14354,-4.988641 3.42538,1.564044 5.22146,5.237301 9.28129,5.799711 3.6536,0.50632 7.07002,-1.29527 10.1104,-3.184636 1.7406,-1.081803 3.71111,-2.687431 5.80095,-2.786869 z m 2.81752,3.956641 c -1.03621,0.994404 -1.92095,2.086504 -3.14892,2.846934 -1.42572,0.88275 -3.03472,1.28626 -4.47535,2.11861 -3.7204,2.14967 -7.28708,4.79651 -11.76741,3.23126 -3.22517,-1.12653 -5.23644,-4.28999 -8.28708,-5.78796 -0.003,5.32437 -1.95552,10.73984 -3.74172,15.65561 -4.1558,11.4367 -10.4904,21.68498 -11.0095,34.2367 h -0.16552 c -0.82241,-1.8049 -1.79566,-3.36738 -2.29471,-5.33348 -1.20759,-4.75818 -0.0937,-10.00599 1.70192,-14.4514 1.24521,-3.08231 3.95431,-6.44274 4.23902,-9.80634 -1.80043,1.54839 -2.98334,4.73186 -4.01889,6.8817 -3.47528,7.21477 -7.07605,17.04675 -1.92166,24.42995 3.86742,5.5396 10.72508,7.85881 14.92282,13.24718 2.05751,2.64121 5.24333,8.51367 0.29943,10.1873 -0.69778,0.23626 -1.42646,0.30095 -2.15472,0.30746 1.01615,1.85133 2.64701,4.48719 4.19735,5.88624 6.03283,5.44429 16.12902,5.01502 23.15,2.48445 2.4475,-0.88224 6.95238,-2.45426 8.43842,-4.78956 0.65765,-1.03344 0.80465,-2.5757 1.12652,-3.75334 1.31864,-4.82389 0.82959,-9.89467 1.77962,-14.79582 0.50336,-2.59697 1.40596,-5.14646 3.2432,-7.05097 0.78413,-0.8129 2.20236,-1.24538 2.82522,-2.13415 0.6986,-0.99715 0.50085,-2.35693 1.3511,-3.37112 1.4587,-1.74021 3.72995,-1.86215 5.76575,-1.35668 3.9783,0.98803 10.56735,3.63614 9.94449,8.75165 2.44452,-0.0303 1.33552,-3.53309 0.38401,-4.81685 -1.31251,-1.77118 -3.17865,-2.86647 -5.02485,-3.93312 -0.6439,-0.37215 -2.10562,-0.76702 -2.45335,-1.46758 -0.33131,-0.66718 0.13541,-2.13296 0.22822,-2.85743 0.20321,-1.5871 0.0514,-3.23809 -0.14284,-4.81727 -0.63744,-5.18415 -2.93646,-10.27249 -5.90009,-14.4514 -0.92782,-1.30821 -3.08895,-5.07207 -4.82576,-4.81727 0.716,2.24068 3.16466,4.00188 4.40291,6.02149 3.73565,6.09323 5.40849,13.14964 3.22136,20.12888 l -2.86123,-0.77663 -0.976,-3.69664 -2.60185,-7.9137 -7.48143,-16.51625 z"
         sodipodi:nodetypes="scccccccsssscccccccssccccccsscsccsscccccccccccccccsccscccscsccccccccccccccccccc" />
      <path
         sodipodi:nodetypes="sssss"
         d="m 285.90043,97.747 c -2.61875,2.72783 -13.01804,9.87871 -18.56792,10.07674 -5.01074,0.17879 -8.42921,-4.95701 -14.49837,-10.07674 -1.26881,-1.070326 10.52495,-10.808894 14.01743,-10.691168 3.20779,0.108126 23.13042,6.439595 19.04886,10.691168 z"
         style="fill:#ffffff;fill-opacity:1;stroke-width:0.163935"
         id="path50-0" />
      <path
         id="path50"
         style="fill:url(#radialGradient1679);fill-opacity:1;stroke-width:0.164;stroke-miterlimit:4;stroke-dasharray:none"
         d="m 285.90043,97.747 c -2.61875,2.72783 -13.01804,9.87871 -18.56792,10.07674 -5.01074,0.17879 -8.42921,-4.95701 -14.49837,-10.07674 -1.26881,-1.070326 10.52495,-10.808894 14.01743,-10.691168 3.20779,0.108126 23.13042,6.439595 19.04886,10.691168 z"
         sodipodi:nodetypes="sssss" />
      <path
         sodipodi:nodetypes="sccsssccccccss"
         d="m 233.2862,155.80687 c -0.28789,-0.005 -0.58404,0.0116 -0.88859,0.0517 -3.67466,0.48344 -5.10764,4.77778 -7.4608,7.16899 -2.60418,2.64601 -7.00134,2.38599 -9.14815,5.512 -2.30351,3.35414 0.19809,7.98974 -0.15943,11.69896 -0.28347,2.9409 -2.78368,6.77763 -0.85785,9.63371 1.84334,2.73375 6.63579,2.6615 9.50465,2.9385 3.06385,0.29574 6.22757,0.82118 9.11578,1.95271 5.06391,1.98399 9.72796,4.99965 15.41405,4.15405 5.42622,-0.80688 9.4755,-5.66678 7.44947,-11.45326 -1.71873,-4.90923 -5.58802,-8.78896 -8.54767,-12.90319 -2.29518,-3.1907 -3.88918,-6.86449 -5.76736,-10.32255 -1.8503,-3.4066 -4.33558,-8.35462 -8.6541,-8.43159 z"
         style="fill:#ffffff;fill-opacity:1;stroke-width:0.20655"
         id="rect884-5" />
      <path
         id="rect884"
         style="fill:url(#linearGradient1023);fill-opacity:1;stroke-width:0.20655"
         d="m 233.2862,155.80685 c -0.28789,-0.005 -0.58404,0.0116 -0.88859,0.0517 -3.67466,0.48344 -5.10764,4.77778 -7.4608,7.169 -2.60418,2.64601 -7.00134,2.38599 -9.14815,5.51199 -2.30351,3.35414 0.19809,7.98975 -0.15943,11.69897 -0.28347,2.94089 -2.78368,6.77763 -0.85785,9.63371 1.84334,2.73374 6.63579,2.6615 9.50465,2.93849 3.06385,0.29574 6.22757,0.82118 9.11578,1.9527 5.0639,1.984 9.72796,4.99965 15.41405,4.15406 5.42621,-0.80688 9.47549,-5.66678 7.44947,-11.45326 -1.71874,-4.90923 -5.58802,-8.78896 -8.54767,-12.90318 -2.29518,-3.1907 -3.88918,-6.8645 -5.76737,-10.32255 -1.85029,-3.4066 -4.33557,-8.35462 -8.65409,-8.4316 z"
         sodipodi:nodetypes="sccsssccccccss" />
      <path
         sodipodi:nodetypes="cccsccsccccccc"
         d="m 297.03681,155.63632 c -2.16226,0.9858 -3.14645,3.11498 -3.80809,5.33348 -1.31732,4.41754 -0.89239,9.08453 -1.56597,13.59118 -0.93709,6.26941 -5.69693,14.3499 -2.8596,20.6451 0.5892,1.30718 1.51193,2.57283 2.59902,3.47193 1.12737,0.93264 2.39506,1.54049 3.81132,1.81661 9.35843,1.8252 13.90423,-7.69782 20.7177,-12.03037 2.5544,-1.62425 5.70681,-2.64759 8.34807,-4.09514 8.45693,-5.02228 0.69883,-8.87272 -1.40717,-14.16349 -1.0498,-2.78279 -1.15691,-6.27505 -2.95072,-8.71289 -1.33422,-1.81298 -4.65242,-2.95359 -6.77938,-2.06568 -1.29443,0.54021 -2.4721,2.00636 -3.67456,2.79947 -3.63206,2.39553 -8.19842,3.02232 -10.76228,-1.25672 -1.02329,-1.7077 -1.13514,-3.47835 -1.66834,-5.33348 z"
         style="fill:#ffffff;fill-opacity:1;stroke-width:0.19087"
         id="rect1040-7" />
      <path
         id="rect1040"
         style="fill:url(#linearGradient1050);fill-opacity:1;stroke-width:0.19087"
         d="m 297.03681,155.63632 c -2.16226,0.9858 -3.14645,3.11498 -3.80809,5.33348 -1.31732,4.41754 -0.89239,9.08453 -1.56597,13.59118 -0.93709,6.26941 -5.69693,14.3499 -2.8596,20.6451 0.5892,1.30718 1.51193,2.57283 2.59902,3.47193 1.12737,0.93264 2.39506,1.54049 3.81132,1.81661 9.35843,1.8252 13.90423,-7.69782 20.7177,-12.03037 2.5544,-1.62425 5.70681,-2.64759 8.34807,-4.09514 8.45693,-5.02228 0.69883,-8.87272 -1.40717,-14.16349 -1.0498,-2.78279 -1.15691,-6.27505 -2.95072,-8.71289 -1.33422,-1.81298 -4.65242,-2.95359 -6.77938,-2.06568 -1.29443,0.54021 -2.4721,2.00636 -3.67456,2.79947 -3.63206,2.39553 -8.19842,3.02232 -10.76228,-1.25672 -1.02329,-1.7077 -1.13514,-3.47835 -1.66834,-5.33348 z"
         sodipodi:nodetypes="cccsccsccccccc" />
      <path
         id="path46"
         style="fill:#040303;stroke:none;stroke-width:0.168863"
         d="m 274.29267,55.108243 c -0.32027,0.0049 -0.63936,0.01624 -0.95698,0.03318 -3.36157,0.179287 -6.59519,0.429766 -9.77859,1.709923 -1.60438,0.645159 -3.10549,1.514007 -4.47534,2.595758 -4.17056,3.293305 -6.12115,8.563645 -6.86517,13.781037 -1.35228,9.48298 1.302,19.017747 -1.07109,28.386999 -1.75106,6.91336 -6.0438,11.9555 -10.0675,17.54825 -3.50991,4.87879 -6.76238,10.23317 -9.10729,15.82782 -1.8031,4.30227 -3.41396,8.88781 -3.85422,13.5916 -0.15427,1.64819 -0.28868,3.33059 -0.17926,4.98908 0.0555,0.8418 0.38727,1.81264 -0.0955,2.58064 -1.33408,2.12231 -3.44124,5.21851 -5.55453,6.52173 -2.62313,1.61755 -5.65187,1.724 -7.73595,4.31702 -3.15181,3.92154 -0.46342,8.9537 -0.89385,13.4194 -0.3552,3.68515 -2.82375,7.50689 -0.19424,11.00383 1.22735,1.63217 3.46792,2.28683 5.34371,2.65414 3.84679,0.75302 7.79216,0.81941 11.60191,1.80779 5.70416,1.47991 10.41636,5.29345 16.57416,5.1701 2.97307,-0.0595 5.95684,-0.83151 8.28667,-2.82342 0.95086,-0.81307 1.85008,-3.16287 2.99071,-3.47823 1.38875,-0.384 3.03191,-0.375 4.46806,-0.6439 3.29478,-0.61712 6.74378,-1.44957 10.10999,-1.29662 4.57596,0.208 8.98808,1.23707 13.59073,1.1975 0.267,1.85083 1.40108,3.59506 2.55896,4.98654 1.01897,1.22442 2.45761,2.22811 3.9052,2.82131 5.49831,2.25341 11.68122,-0.25271 15.91095,-4.07257 2.96445,-2.67732 5.16201,-5.7626 8.61888,-7.86203 3.64897,-2.21608 10.02246,-3.75702 11.87545,-8.08802 2.15746,-5.04221 -3.57021,-8.62354 -5.00786,-12.73139 -1.51818,-4.3377 -1.26785,-9.10982 -6.03888,-11.18276 1.52548,-3.67947 1.73249,-8.2848 1.35393,-12.21477 -1.02544,-10.64581 -6.20499,-20.04329 -12.40107,-28.387 -3.09771,-4.17117 -6.68785,-8.07008 -9.12226,-12.7314 -1.32925,-2.54502 -2.35206,-5.217266 -2.79608,-8.08591 -0.46209,-2.985622 -0.23834,-6.102259 -0.23834,-9.118329 0,-9.772705 -0.37779,-22.546842 -8.95028,-28.77889 -1.59078,-1.156452 -3.28857,-1.934426 -5.13775,-2.528555 -2.13316,-0.685393 -4.42539,-0.954142 -6.66729,-0.919855 z m 2.56139,20.309071 c 0.62555,-0.01219 1.2783,0.09351 1.95118,0.339807 4.37607,1.60171 6.08921,7.379028 5.0989,11.750627 -0.24911,1.09953 -0.80336,3.634154 -1.96737,4.067531 -0.9023,0.336003 -2.69902,-0.914245 -3.62883,-1.142893 1.13913,-2.533153 2.57686,-8.012451 -1.32602,-9.175452 -3.28864,-0.979781 -3.68468,4.60119 -3.64623,6.594815 -0.78413,-0.338401 -2.66018,-0.748165 -3.14448,-1.464209 -0.56153,-0.829932 -0.19673,-3.107558 -0.002,-4.041066 0.70048,-3.360029 3.28689,-6.863258 6.66486,-6.92916 z m -16.95978,1.36803 c 3.82551,0.01317 4.98843,6.757367 4.98843,9.862194 l -2.98343,1.376427 c 0.0328,-1.49729 0.0422,-3.004723 -0.80362,-4.301064 -1.29079,-1.978321 -2.96732,-1.234065 -3.54062,0.860209 -0.66545,2.429928 0.79646,3.726261 1.15363,5.842562 0.13409,0.795007 -1.05271,1.330073 -1.61573,1.554933 -2.63148,-3.699089 -4.3199,-12.316717 0.99461,-14.758861 0.65954,-0.303093 1.26023,-0.438277 1.80673,-0.4364 z m 7.46606,10.524154 c 3.10414,-0.05535 5.54129,1.643269 8.29557,3.076266 1.42703,0.74237 2.9894,1.181249 4.47494,1.77755 1.68013,0.674404 3.76009,1.647048 3.96064,3.774346 0.44899,4.76248 -4.86791,6.04635 -7.93828,7.79568 -2.40622,1.37083 -4.47917,3.12979 -7.29246,3.50931 -4.42712,0.59716 -6.43963,-2.29812 -9.77899,-4.58164 -1.96122,-1.34124 -4.69319,-3.025122 -4.56275,-5.863132 0.083,-1.804552 1.80861,-2.848771 3.07123,-3.784855 2.85109,-2.113887 5.10095,-5.129681 8.78439,-5.627918 0.33648,-0.04552 0.66459,-0.0699 0.98571,-0.07559 z m 13.93103,8.456377 c -2.08984,0.09944 -4.06035,1.705066 -5.80096,2.786869 -3.04037,1.889366 -6.45679,3.690956 -10.1104,3.184636 -4.05983,-0.56241 -5.8559,-4.235675 -9.28128,-5.79972 -0.37822,2.149675 2.60065,3.92955 4.14354,4.98864 4.16542,2.85918 9.10394,2.55427 13.42482,0.19196 2.37707,-1.299606 4.95235,-3.653724 7.62428,-4.148174 z m 2.81752,3.956641 5.96848,17.720454 7.48143,16.51624 2.60185,7.91371 0.976,3.69664 2.86122,0.77663 c 2.18714,-6.97925 0.5143,-14.03566 -3.22135,-20.12889 -1.23826,-2.01961 -3.68692,-3.7808 -4.40292,-6.02148 1.7368,-0.2548 3.89795,3.50906 4.82577,4.81727 2.96363,4.17891 5.26265,9.26724 5.90009,14.4514 0.19425,1.57918 0.34603,3.23017 0.14284,4.81727 -0.0928,0.72447 -0.55954,2.19026 -0.22822,2.85743 0.34773,0.70056 1.80944,1.09544 2.45335,1.46758 1.84619,1.06666 3.71234,2.16194 5.02485,3.93312 0.95151,1.28377 2.06051,4.78657 -0.38401,4.81685 0.62285,-5.11552 -5.9662,-7.76362 -9.94449,-8.75165 -2.0358,-0.50547 -4.30706,-0.38353 -5.76575,1.35668 -0.85026,1.01419 -0.65251,2.37397 -1.3511,3.37112 -0.62286,0.88877 -2.04109,1.32125 -2.82522,2.13415 -1.83724,1.90451 -2.73984,4.454 -3.2432,7.05097 -0.95003,4.90115 -0.46098,9.97192 -1.77962,14.79582 -0.32188,1.17763 -0.46887,2.71989 -1.12653,3.75335 -1.48603,2.3353 -5.99091,3.90731 -8.43841,4.78955 -7.02098,2.53057 -17.11717,2.95983 -23.15,-2.48445 -1.55035,-1.39905 -3.1812,-4.03489 -4.19735,-5.88623 0.72826,-0.007 1.45695,-0.0712 2.15472,-0.30746 4.9439,-1.67363 1.75808,-7.5461 -0.29944,-10.18731 -4.19773,-5.38837 -11.05539,-7.70758 -14.92281,-13.24718 -5.15439,-7.3832 -1.55362,-17.21518 1.92165,-24.42995 1.03556,-2.14984 2.21846,-5.33331 4.0189,-6.8817 -0.28474,3.3636 -2.99381,6.72403 -4.23903,9.80634 -1.79564,4.44541 -2.90951,9.69322 -1.70192,14.4514 0.49905,1.9661 1.47231,3.52859 2.29472,5.33349 h 0.1655 c 0.51911,-12.55172 6.85371,-22.80001 11.00951,-34.23671 1.7862,-4.91577 3.73842,-10.33124 3.74173,-15.65561 3.05064,1.49797 5.06192,4.66142 8.28708,5.78795 4.48033,1.56525 8.047,-1.08158 11.76741,-3.23125 1.44062,-0.83235 3.04963,-1.23586 4.47534,-2.11861 1.22797,-0.76043 2.11271,-1.85253 3.14893,-2.846934 z m 12.92792,55.913804 c 0.5332,1.85513 0.64505,3.62578 1.66834,5.33348 2.56386,4.27904 7.13022,3.65224 10.76228,1.25672 1.20246,-0.79312 2.38012,-2.25927 3.67455,-2.79948 2.12697,-0.8879 5.44516,0.25271 6.77938,2.06569 1.79382,2.43784 1.69165,5.98441 2.74146,8.76719 0.89235,2.36541 2.87118,4.02871 4.10712,6.1937 0.76986,1.34864 1.453,3.12146 0.75506,4.64506 -0.67656,1.47681 -2.30061,2.40175 -3.63814,3.13465 -2.64126,1.44757 -5.40126,2.60667 -7.95568,4.23092 -6.81346,4.33255 -11.35925,13.85557 -20.71769,12.03037 -1.41626,-0.27613 -2.68395,-0.88397 -3.81132,-1.81661 -1.0871,-0.8991 -2.00982,-2.16475 -2.59902,-3.47193 -2.83733,-6.2952 1.9225,-14.37569 2.8596,-20.6451 0.67358,-4.50665 0.24865,-9.17365 1.56597,-13.59118 0.66164,-2.2185 1.64583,-4.34768 3.80809,-5.33348 z m -63.75061,0.17052 c 4.31852,0.077 6.80379,5.02499 8.65409,8.4316 1.87818,3.45805 3.47218,7.13185 5.76737,10.32254 2.95965,4.11423 6.82893,7.99396 8.54767,12.90319 2.02602,5.78648 -2.02326,10.64637 -7.44947,11.45326 -5.68609,0.84558 -10.35014,-2.17006 -15.41405,-4.15406 -2.88821,-1.13152 -6.05193,-1.65696 -9.11578,-1.9527 -2.86886,-0.27699 -7.66131,-0.20474 -9.50465,-2.93849 -1.92583,-2.85608 0.57438,-6.69282 0.85785,-9.63371 0.35752,-3.70923 -2.14408,-8.34483 0.15943,-11.69897 2.14681,-3.12601 6.54397,-2.86598 9.14815,-5.51199 2.35316,-2.39122 3.78614,-6.68557 7.4608,-7.169 0.30455,-0.0401 0.60069,-0.0568 0.88859,-0.0517 z" />
    </g>
  </g>
</svg>
