<svg xmlns="http://www.w3.org/2000/svg" xmlns:xlink="http://www.w3.org/1999/xlink" viewBox="0 0 371.31 366.99"><defs><style>.bd1e726d-dacb-40ce-97e1-099a4fd03a89{fill:none;}.b2a375f5-c80d-4d51-abcd-c51fe50e8eff,.bd1e726d-dacb-40ce-97e1-099a4fd03a89,.fa136645-f9e2-4265-a473-3076da576a4b{stroke:#000;stroke-miterlimit:10;stroke-width:2px;}.f1706b59-d82e-42dd-8f81-12b5e19f2852{isolation:isolate;}.fa136645-f9e2-4265-a473-3076da576a4b{fill:#5ca4a5;}.a54a95d4-49b1-45e3-b02a-9852c2968d71{clip-path:url(#f9c78755-4560-438f-a2c1-8e3bd29a5fb8);}.a0a6aeb9-0169-457d-a956-c45561630d12,.b2a375f5-c80d-4d51-abcd-c51fe50e8eff,.bbea5d88-b147-46b1-8005-56c60d46ec1b{fill:#081010;}.a67f4e54-ecb3-451b-98fe-7598ea72f534{fill:#231f20;}.a0a6aeb9-0169-457d-a956-c45561630d12{font-size:28.32px;font-family:SlopeOpera, Slope Opera;}.aeef2eff-031d-4c92-91c2-043f2a94fab4{font-size:34.22px;font-family:MyriadPro-Regular, Myriad Pro;}.bfd83fe9-f64c-44d3-bf9f-26debda8f565{mix-blend-mode:color-dodge;}.a0d86072-e773-497a-afaf-a6f6e0f26d58{opacity:0.7;fill:url(#f9ac1e21-cbff-4f56-bb8c-7bdae128acd6);}</style><clipPath id="f9c78755-4560-438f-a2c1-8e3bd29a5fb8" transform="translate(-502.32 -193.13)"><circle class="bd1e726d-dacb-40ce-97e1-099a4fd03a89" cx="685.82" cy="376.63" r="182.5"/></clipPath><linearGradient id="f9ac1e21-cbff-4f56-bb8c-7bdae128acd6" x1="1" y1="183.5" x2="365.99" y2="183.5" gradientUnits="userSpaceOnUse"><stop offset="0" stop-color="#5ca4a5"/><stop offset="0.05" stop-color="#5ca4a5" stop-opacity="0.84"/><stop offset="0.14" stop-color="#5ca4a5" stop-opacity="0.62"/><stop offset="0.23" stop-color="#5ca4a5" stop-opacity="0.43"/><stop offset="0.33" stop-color="#5ca4a5" stop-opacity="0.27"/><stop offset="0.45" stop-color="#5ca4a5" stop-opacity="0.15"/><stop offset="0.57" stop-color="#5ca4a5" stop-opacity="0.06"/><stop offset="0.73" stop-color="#5ca4a5" stop-opacity="0.01"/><stop offset="1" stop-color="#5ca4a5" stop-opacity="0"/></linearGradient></defs><title>LogoAndrea</title><g class="f1706b59-d82e-42dd-8f81-12b5e19f2852"><g id="bb5291f9-7fe1-4cd0-ba73-7fa30c3ab786" data-name="Livello 1"><circle class="fa136645-f9e2-4265-a473-3076da576a4b" cx="183.5" cy="183.5" r="182.5"/><g class="a54a95d4-49b1-45e3-b02a-9852c2968d71"><polygon class="b2a375f5-c80d-4d51-abcd-c51fe50e8eff" points="297.21 140.45 275.1 123.34 256.02 149.34 278.15 166.42 297.21 140.45"/><polygon class="b2a375f5-c80d-4d51-abcd-c51fe50e8eff" points="180.07 165.08 209.65 165.08 223.65 124.34 235.77 133.7 254.87 107.68 138.51 17.64 126.48 52.66 199.6 108.24 180.07 165.08"/><path class="b2a375f5-c80d-4d51-abcd-c51fe50e8eff" d="M872.45,390l-52.68-40.77L800.89,375c9.18,6.59,18.43,12.87,27.61,18.93H699.71L704.47,380H674.89l-4.76,13.85H579.65V394h-1.8l-12.44,36.18h5.33v0h31V556.64h31.68v-125H872.17V393.89h-1Z" transform="translate(-502.32 -193.13)"/></g><circle class="bd1e726d-dacb-40ce-97e1-099a4fd03a89" cx="183.5" cy="183.5" r="182.5"/><line class="bbea5d88-b147-46b1-8005-56c60d46ec1b" x1="151.77" y1="285.03" x2="325.34" y2="285.03"/><polygon class="a67f4e54-ecb3-451b-98fe-7598ea72f534" points="151.77 285.03 173.47 284.79 195.17 284.64 238.56 284.53 281.95 284.64 303.64 284.78 325.34 285.03 303.64 285.27 281.95 285.41 238.56 285.53 195.17 285.41 173.47 285.27 151.77 285.03"/><text class="a0a6aeb9-0169-457d-a956-c45561630d12" transform="translate(163.94 278.73)">435 h<tspan class="aeef2eff-031d-4c92-91c2-043f2a94fab4" x="84.46" y="0">z</tspan></text><g class="bfd83fe9-f64c-44d3-bf9f-26debda8f565"><circle class="a0d86072-e773-497a-afaf-a6f6e0f26d58" cx="183.5" cy="183.5" r="182.5"/></g></g></g></svg>